HIERARCHY
ROOT Hips
{
	OFFSET -249.116806 92.288788 332.350586
	CHANNELS 6 Xposition Yposition Zposition Zrotation Yrotation Xrotation 
	JOINT LeftUpLeg
	{
		OFFSET 0.103458 1.857838 10.548509
		CHANNELS 3 Zrotation Yrotation Xrotation
		JOINT LeftLeg
		{
			OFFSET 43.500004 -0.000038 -0.000002
			CHANNELS 3 Zrotation Yrotation Xrotation
			JOINT LeftFoot
			{
				OFFSET 42.372196 0.000015 0.000010
				CHANNELS 3 Zrotation Yrotation Xrotation
				JOINT LeftToe
				{
					OFFSET 17.300011 0.000003 -0.000006
					CHANNELS 3 Zrotation Yrotation Xrotation
					End Site
					{
						OFFSET 0.000000 0.000000 0.000000
					}
				}
			}
		}
	}
	JOINT RightUpLeg
	{
		OFFSET 0.103461 1.857837 -10.548498
		CHANNELS 3 Zrotation Yrotation Xrotation
		JOINT RightLeg
		{
			OFFSET 43.500046 -0.000042 0.000031
			CHANNELS 3 Zrotation Yrotation Xrotation
			JOINT RightFoot
			{
				OFFSET 42.372253 0.000011 -0.000004
				CHANNELS 3 Zrotation Yrotation Xrotation
				JOINT RightToe
				{
					OFFSET 17.299978 -0.000010 0.000025
					CHANNELS 3 Zrotation Yrotation Xrotation
					End Site
					{
						OFFSET 0.000000 0.000000 0.000000
					}
				}
			}
		}
	}
	JOINT Spine
	{
		OFFSET 6.901964 -2.603743 0.000001
		CHANNELS 3 Zrotation Yrotation Xrotation
		JOINT Spine1
		{
			OFFSET 12.588102 0.000002 0.000000
			CHANNELS 3 Zrotation Yrotation Xrotation
			JOINT Spine2
			{
				OFFSET 12.343204 0.000009 -0.000003
				CHANNELS 3 Zrotation Yrotation Xrotation
				JOINT Neck
				{
					OFFSET 25.832901 -0.000015 0.000002
					CHANNELS 3 Zrotation Yrotation Xrotation
					JOINT Head
					{
						OFFSET 11.766612 0.000023 -0.000003
						CHANNELS 3 Zrotation Yrotation Xrotation
						End Site
						{
							OFFSET 0.000000 0.000000 0.000000
						}
					}
				}
				JOINT LeftShoulder
				{
					OFFSET 19.745905 -1.480377 6.000110
					CHANNELS 3 Zrotation Yrotation Xrotation
					JOINT LeftArm
					{
						OFFSET 11.284127 -0.000004 -0.000022
						CHANNELS 3 Zrotation Yrotation Xrotation
						JOINT LeftForeArm
						{
							OFFSET 33.000050 -0.000022 0.000026
							CHANNELS 3 Zrotation Yrotation Xrotation
							JOINT LeftHand
							{
								OFFSET 25.200010 0.000035 0.000011
								CHANNELS 3 Zrotation Yrotation Xrotation
								End Site
								{
									OFFSET 0.000000 0.000000 0.000000
								}
							}
						}
					}
				}
				JOINT RightShoulder
				{
					OFFSET 19.746092 -1.480381 -6.000066
					CHANNELS 3 Zrotation Yrotation Xrotation
					JOINT RightArm
					{
						OFFSET 11.284147 -0.000020 -0.000017
						CHANNELS 3 Zrotation Yrotation Xrotation
						JOINT RightForeArm
						{
							OFFSET 33.000095 0.000005 0.000016
							CHANNELS 3 Zrotation Yrotation Xrotation
							JOINT RightHand
							{
								OFFSET 25.199768 0.000156 0.000415
								CHANNELS 3 Zrotation Yrotation Xrotation
								End Site
								{
									OFFSET 0.000000 0.000000 0.000000
								}
							}
						}
					}
				}
			}
		}
	}
}
MOTION
Frames: 7
Frame Time: 0.033333
-249.116806 92.288788 332.350586 90.641678 3.974779 90.143737 -174.385016 -4.401701 -179.855410 -8.893538 -2.527387 -4.748005 82.529019 2.604871 -3.454503 21.454551 0.003093 -0.000001 -176.803408 4.994513 -178.109067 -13.229972 0.820950 0.494178 84.091800 0.332586 3.445987 21.454555 -0.003108 -0.000019 5.909764 -0.042058 -0.085097 1.824402 -0.079310 -0.148127 1.506289 -0.080245 -0.147562 21.079311 1.358417 0.693276 -15.499733 -1.959007 1.388373 -78.338896 -84.247112 -103.953519 -12.521051 -8.213201 1.876521 -9.872326 -13.110164 0.878217 9.173474 4.876557 -1.601430 122.727612 85.765661 -55.943515 -1.252299 3.161155 5.075558 -16.681740 18.460471 -1.270436 16.832904 3.931083 2.706555 
-249.118195 92.288689 332.354309 90.641671 3.972952 90.145984 -174.385016 -4.403298 -179.859453 -8.893538 -2.527385 -4.744132 82.529019 2.602009 -3.454501 21.454550 0.003095 0.000001 -176.803408 4.994511 -178.107496 -13.229981 0.820956 0.494170 84.091814 0.332578 3.445985 21.454560 -0.003112 -0.000017 5.909763 -0.042069 -0.085094 1.824392 -0.079303 -0.148124 1.506309 -0.080241 -0.147565 21.075882 1.360617 0.693286 -15.499738 -1.962582 1.388372 -78.331369 -84.244250 -103.961237 -12.527299 -8.209571 1.879022 -9.865696 -13.112288 0.878226 9.167942 4.887030 -1.592916 122.813536 85.769779 -55.857041 -1.265154 3.163200 5.091993 -16.684380 18.453954 -1.270433 16.832899 3.935482 2.710156 
-249.126007 92.288017 332.374390 90.641671 3.963382 90.158019 -174.385002 -4.410801 -179.882922 -8.893544 -2.527386 -4.722403 82.536662 2.585919 -3.460105 21.454550 0.003080 -0.000002 -176.803408 4.994507 -178.098931 -13.237485 0.826645 0.500436 84.099457 0.327703 3.445986 21.454560 -0.003114 -0.000018 5.909761 -0.042064 -0.085091 1.824395 -0.079297 -0.148117 1.506301 -0.080248 -0.147568 21.057787 1.370022 0.693282 -15.499730 -1.981912 1.394104 -78.290640 -84.227857 -104.003577 -12.567751 -8.184170 1.894973 -9.830114 -13.125002 0.878210 9.139331 4.946261 -1.542322 123.297468 85.792107 -55.370137 -1.324766 3.178428 5.117981 -16.712243 18.418298 -1.270424 16.842005 3.965709 2.783553 
-249.133896 92.287392 332.395111 90.641665 3.953898 90.170436 -174.385016 -4.416398 -179.886993 -8.893545 -2.527391 -4.712127 82.542563 2.577074 -3.468418 21.454551 0.003089 -0.000001 -176.803408 4.994502 -178.089560 -13.245928 0.832976 0.506672 84.107393 0.322831 3.445985 21.454558 -0.003108 -0.000017 5.909764 -0.042049 -0.085100 1.824395 -0.079307 -0.148113 1.506291 -0.080245 -0.147565 21.039237 1.382456 0.693282 -15.499728 -2.004412 1.402310 -78.237235 -84.211212 -104.058697 -12.600680 -8.166097 1.906616 -9.809992 -13.129468 0.878225 9.121158 5.050271 -1.533640 123.694548 85.822659 -54.969567 -1.386351 3.180418 5.103443 -16.716779 18.402469 -1.270428 16.872147 3.935443 2.786349 
-249.141800 92.286774 332.416290 90.641671 3.944587 90.182922 -174.385002 -4.420706 -179.883987 -8.893540 -2.527386 -4.706715 82.547658 2.571328 -3.477971 21.454551 0.003078 -0.000001 -176.803395 4.994511 -178.079137 -13.254815 0.839207 0.512225 84.115555 0.318431 3.445988 21.454557 -0.003095 -0.000015 5.909764 -0.042061 -0.085101 1.824388 -0.079300 -0.148113 1.506301 -0.080255 -0.147555 21.018936 1.398320 0.693273 -15.499733 -2.027427 1.409264 -78.166235 -84.195790 -104.131541 -12.604092 -8.170267 1.894980 -9.818747 -13.115351 0.878223 9.117011 5.190417 -1.565054 124.043257 85.857069 -54.616972 -1.447303 3.182601 5.036533 -16.685597 18.393090 -1.270425 16.907522 3.881906 2.743460 
-249.149704 92.286102 332.437592 90.641665 3.935432 90.195660 -174.385002 -4.425000 -179.878141 -8.893543 -2.527389 -4.701827 82.552788 2.565870 -3.487743 21.454553 0.003083 -0.000002 -176.803408 4.994504 -178.067020 -13.263254 0.844139 0.516762 84.123786 0.314808 3.445983 21.454558 -0.003110 -0.000019 5.909767 -0.042058 -0.085097 1.824390 -0.079304 -0.148113 1.506294 -0.080245 -0.147562 20.994997 1.409819 0.688972 -15.499724 -2.043624 1.410298 -78.086418 -84.182505 -104.212684 -12.582599 -8.196292 1.881655 -9.834913 -13.085292 0.878227 9.128860 5.280988 -1.596500 124.351066 85.889813 -54.305519 -1.501121 3.187099 4.953526 -16.638508 18.384646 -1.270429 16.930924 3.836219 2.687034 
-249.157593 92.285393 332.458893 90.641671 3.926559 90.208508 -174.385002 -4.429703 -179.873783 -8.893535 -2.527383 -4.696352 82.558238 2.560073 -3.497347 21.454555 0.003088 -0.000001 -176.799283 4.994508 -178.053142 -13.270553 0.846974 0.519951 84.131982 0.312601 3.445990 21.454558 -0.003091 -0.000016 5.909767 -0.042061 -0.085101 1.819800 -0.079306 -0.148110 1.501709 -0.080244 -0.147562 20.971782 1.416550 0.681429 -15.499735 -2.051707 1.405108 -77.997844 -84.173175 -104.302425 -12.543321 -8.236642 1.860645 -9.847185 -13.057967 0.878233 9.148899 5.321749 -1.643240 124.598469 85.918698 -54.055186 -1.543361 3.194802 4.871626 -16.572114 18.378603 -1.270430 16.891242 3.790867 2.636382 
